<svg width="24" height="28" viewBox="0 0 24 28" fill="none" xmlns="http://www.w3.org/2000/svg">
<path d="M14.3333 8.16667V0.536667C15.4125 0.944224 16.3928 1.57653 17.2091 2.39167L21.2738 6.45867C22.0898 7.27403 22.7226 8.25404 23.1299 9.33333H15.4999C15.1905 9.33333 14.8938 9.21042 14.675 8.99162C14.4562 8.77283 14.3333 8.47609 14.3333 8.16667ZM23.6666 12.2325V22.1667C23.6647 23.7132 23.0496 25.1959 21.956 26.2894C20.8624 27.383 19.3798 27.9981 17.8333 28H6.16659C4.62006 27.9981 3.1374 27.383 2.04384 26.2894C0.950281 25.1959 0.335104 23.7132 0.333252 22.1667V5.83333C0.335104 4.28681 0.950281 2.80415 2.04384 1.71059C3.1374 0.617029 4.62006 0.0018525 6.16659 0L11.4341 0C11.6243 0 11.8121 0.0151667 11.9999 0.028V8.16667C11.9999 9.09492 12.3687 9.98516 13.025 10.6415C13.6814 11.2979 14.5717 11.6667 15.4999 11.6667H23.6386C23.6514 11.8545 23.6666 12.0423 23.6666 12.2325ZM14.3333 22.1667C14.3333 21.8572 14.2103 21.5605 13.9915 21.3417C13.7728 21.1229 13.476 21 13.1666 21H7.33325C7.02383 21 6.72709 21.1229 6.50829 21.3417C6.2895 21.5605 6.16659 21.8572 6.16659 22.1667C6.16659 22.4761 6.2895 22.7728 6.50829 22.9916C6.72709 23.2104 7.02383 23.3333 7.33325 23.3333H13.1666C13.476 23.3333 13.7728 23.2104 13.9915 22.9916C14.2103 22.7728 14.3333 22.4761 14.3333 22.1667ZM17.8333 17.5C17.8333 17.1906 17.7103 16.8938 17.4915 16.675C17.2728 16.4562 16.976 16.3333 16.6666 16.3333H7.33325C7.02383 16.3333 6.72709 16.4562 6.50829 16.675C6.2895 16.8938 6.16659 17.1906 6.16659 17.5C6.16659 17.8094 6.2895 18.1062 6.50829 18.325C6.72709 18.5437 7.02383 18.6667 7.33325 18.6667H16.6666C16.976 18.6667 17.2728 18.5437 17.4915 18.325C17.7103 18.1062 17.8333 17.8094 17.8333 17.5Z" fill="white"/>
</svg>
