<svg width="30" height="30" viewBox="0 0 30 30" fill="none" xmlns="http://www.w3.org/2000/svg">
<g clip-path="url(#clip0_42_1600)">
<path d="M20 2.715V1.25C20 0.55875 19.44 0 18.75 0C18.06 0 17.5 0.55875 17.5 1.25V2.5H15V1.25C15 0.55875 14.44 0 13.75 0C13.06 0 12.5 0.55875 12.5 1.25V2.5H10V1.25C10 0.55875 9.44 0 8.75 0C8.06 0 7.5 0.55875 7.5 1.25V2.5H5V1.25C5 0.55875 4.44 0 3.75 0C3.06 0 2.5 0.55875 2.5 1.25V2.715C1.045 3.23125 0 4.62 0 6.25V23.75C0 27.1963 2.80375 30 6.25 30H16.25C19.6963 30 22.5 27.1963 22.5 23.75V6.25C22.5 4.62 21.455 3.23125 20 2.715ZM12.5 21.25H6.25C5.56 21.25 5 20.6912 5 20C5 19.3088 5.56 18.75 6.25 18.75H12.5C13.19 18.75 13.75 19.3088 13.75 20C13.75 20.6912 13.19 21.25 12.5 21.25ZM16.25 16.25H6.25C5.56 16.25 5 15.6912 5 15C5 14.3088 5.56 13.75 6.25 13.75H16.25C16.94 13.75 17.5 14.3088 17.5 15C17.5 15.6912 16.94 16.25 16.25 16.25ZM16.25 11.25H6.25C5.56 11.25 5 10.6912 5 10C5 9.30875 5.56 8.75 6.25 8.75H16.25C16.94 8.75 17.5 9.30875 17.5 10C17.5 10.6912 16.94 11.25 16.25 11.25ZM27.5 30L26.0987 28.5987C25.395 27.895 25 26.9412 25 25.9475V2.5C25 1.11875 26.1187 0 27.5 0C28.8813 0 30 1.11875 30 2.5V25.9463C30 26.9412 29.605 27.895 28.9013 28.5975L27.5 30Z" fill="white"/>
</g>
<defs>
<clipPath id="clip0_42_1600">
<rect width="30" height="30" fill="white"/>
</clipPath>
</defs>
</svg>
