<svg width="28" height="28" viewBox="0 0 28 28" fill="none" xmlns="http://www.w3.org/2000/svg">
<g clip-path="url(#clip0_67_122)">
<path d="M24.5 13.4167V17.5H21C20.0717 17.5 19.1815 17.8687 18.5251 18.5251C17.8687 19.1815 17.5 20.0717 17.5 21V24.5H5.25C4.78587 24.5 4.34075 24.3156 4.01256 23.9874C3.68437 23.6592 3.5 23.2141 3.5 22.75V5.25C3.5 4.78587 3.68437 4.34075 4.01256 4.01256C4.34075 3.68437 4.78587 3.5 5.25 3.5H15.75C16.2141 3.5 16.6592 3.31563 16.9874 2.98744C17.3156 2.65925 17.5 2.21413 17.5 1.75C17.5 1.28587 17.3156 0.840752 16.9874 0.512563C16.6592 0.184374 16.2141 0 15.75 0L5.25 0C3.85761 0 2.52226 0.553123 1.53769 1.53769C0.553123 2.52226 0 3.85761 0 5.25L0 22.75C0 24.1424 0.553123 25.4777 1.53769 26.4623C2.52226 27.4469 3.85761 28 5.25 28H19.2313C20.6232 28 21.958 27.4473 22.9425 26.4635L26.4623 22.9437C27.4466 21.9594 27.9997 20.6245 28 19.2325V13.4167C28 12.9525 27.8156 12.5074 27.4874 12.1792C27.1592 11.851 26.7141 11.6667 26.25 11.6667C25.7859 11.6667 25.3408 11.851 25.0126 12.1792C24.6844 12.5074 24.5 12.9525 24.5 13.4167Z" fill="black"/>
<path d="M20.7584 2.09185L6.17509 16.6752C5.95628 16.8939 5.83332 17.1906 5.83325 17.5V21C5.83325 21.3094 5.95617 21.6062 6.17496 21.825C6.39375 22.0438 6.6905 22.1667 6.99992 22.1667H10.4999C10.8093 22.1666 11.106 22.0437 11.3248 21.8249L25.7109 7.43869C26.1977 6.96927 26.5556 6.38251 26.7501 5.73482C26.9446 5.08714 26.9692 4.4003 26.8216 3.74035C26.6564 3.12657 26.3333 2.56679 25.8844 2.11676C25.4356 1.66673 24.8766 1.34217 24.2633 1.1754C23.6499 1.00864 23.0036 1.0055 22.3886 1.1663C21.7737 1.32709 21.2116 1.64621 20.7584 2.09185Z" fill="black"/>
</g>
<defs>
<clipPath id="clip0_67_122">
<rect width="28" height="28" fill="white"/>
</clipPath>
</defs>
</svg>
