<svg width="19" height="29" viewBox="0 0 19 29" fill="none" xmlns="http://www.w3.org/2000/svg">
<path d="M6.43136 0.349955C3.82766 1.25028 1.95834 2.91917 0.712123 5.44447C0.0445077 6.78398 0 6.98161 0 9.39712C0.0222538 12.3836 0.222538 12.9325 2.38116 15.9409C3.16004 17.0169 4.11696 18.3564 4.49527 18.9054L5.22965 19.9375H13.8196L14.9546 18.2247C15.5999 17.3024 16.6236 15.8092 17.2245 14.9308C18.6932 12.8227 19.0938 11.4393 18.9825 8.8701C18.9158 7.2012 18.7822 6.63027 18.2036 5.3786C17.269 3.42423 15.5109 1.68946 13.5303 0.767178C12.1951 0.152322 11.75 0.0644859 9.79169 0.0205676C8.07814 -0.0453098 7.29926 0.0425267 6.43136 0.349955ZM9.03505 2.72154C9.48013 3.24856 9.0128 3.77558 7.94462 3.95125C5.67473 4.32456 3.89442 6.25696 3.89442 8.36504C3.89442 9.15557 3.56061 9.61671 2.98201 9.61671C1.89158 9.61671 2.24764 6.87182 3.58287 4.96137C4.27274 3.97321 5.5412 3.09485 6.83193 2.69958C8.12265 2.30432 8.67899 2.30432 9.03505 2.72154Z" fill="black"/>
<path d="M5.56373 21.1127C5.33667 21.5714 5.40478 22.1953 5.69997 22.4339C6.01786 22.6908 13.7607 22.7458 14.2376 22.4889C14.4192 22.3972 14.51 22.0669 14.4646 21.6265L14.3965 20.9108L10.0596 20.8558C6.24492 20.8191 5.69997 20.8558 5.56373 21.1127Z" fill="black"/>
<path d="M5.47516 24.0156C5.41304 24.2694 5.41304 24.6681 5.47516 24.9219L5.5994 25.375L9.59577 25.3387L13.5714 25.2844V23.6531L9.59577 23.5987L5.5994 23.5625L5.47516 24.0156Z" fill="black"/>
<path d="M7.2381 26.825C7.2381 27.1805 7.51958 27.6615 8.02222 28.1844C8.70582 28.8954 8.90688 29 9.75132 29C10.9577 29 11.7619 28.4981 12.2646 27.4315C12.4857 26.9505 12.6667 26.5113 12.6667 26.4276C12.6667 26.344 11.4402 26.2812 9.95238 26.2812H7.2381V26.825Z" fill="black"/>
</svg>
