<svg width="20" height="20" viewBox="0 0 20 20" fill="none" xmlns="http://www.w3.org/2000/svg">
<mask id="mask0_1620_4002" style="mask-type:alpha" maskUnits="userSpaceOnUse" x="1" y="1" width="18" height="18">
<path d="M1 8.87902C1 5.16505 1 3.30757 2.172 2.15428C3.343 1 5.229 1 9 1H11C14.771 1 16.657 1 17.828 2.15428C19 3.30757 19 5.16505 19 8.87902V10.8488C19 14.5627 19 16.4202 17.828 17.5735C16.657 18.7278 14.771 18.7278 11 18.7278H9C5.229 18.7278 3.343 18.7278 2.172 17.5735C1 16.4202 1 14.5627 1 10.8488V8.87902Z" fill="#273B4A"/>
</mask>
<g mask="url(#mask0_1620_4002)">
<path d="M3.40994 10.4452L3.25694 10.5959C2.27694 11.5611 1.78694 12.0437 1.49294 12.6375C1.39087 12.8434 1.30722 13.0576 1.24294 13.2777C1.05794 13.912 1.09494 14.5945 1.16794 15.9585L3.25694 18.5L9.85294 19L17.4999 18.5L18.5279 17C18.5279 15.5709 18.9999 15.3597 18.7609 14.7107C18.696 14.5331 18.6181 14.3603 18.5279 14.1936C18.1979 13.584 17.6579 13.1063 16.5779 12.15L16.3639 11.9599C15.4679 11.1652 15.0199 10.7682 14.5079 10.656C14.1865 10.5851 13.8523 10.5936 13.5349 10.6806C13.0299 10.8195 12.6029 11.24 11.7509 12.0791C11.1179 12.7025 10.8019 13.0138 10.4629 13.0561C10.2522 13.0821 10.0386 13.0414 9.85294 12.9399C9.55294 12.7764 9.37394 12.3657 9.01694 11.5433C8.25594 9.79519 7.87594 8.9216 7.22194 8.59856C6.8926 8.43594 6.52404 8.36607 6.15694 8.39666C5.42794 8.45773 4.75594 9.12055 3.40994 10.4452Z" fill="white" stroke="white"/>
</g>
<path d="M1 8.87902C1 5.16505 1 3.30757 2.172 2.15428C3.343 1 5.229 1 9 1H11C14.771 1 16.657 1 17.828 2.15428C19 3.30757 19 5.16505 19 8.87902V10.8488C19 14.5627 19 16.4202 17.828 17.5735C16.657 18.7278 14.771 18.7278 11 18.7278H9C5.229 18.7278 3.343 18.7278 2.172 17.5735C1 16.4202 1 14.5627 1 10.8488V8.87902Z" stroke="white" stroke-width="1.2"/>
<path d="M14.5 6.90971C15.3284 6.90971 16 6.24829 16 5.43239C16 4.61649 15.3284 3.95508 14.5 3.95508C13.6716 3.95508 13 4.61649 13 5.43239C13 6.24829 13.6716 6.90971 14.5 6.90971Z" fill="white"/>
</svg>
