<svg width="512" height="457" viewBox="0 0 512 457" fill="none" xmlns="http://www.w3.org/2000/svg">
<g clip-path="url(#clip0_279_12)">
<path d="M508.179 210.528C489.448 169.568 415.997 36 255.997 36C95.9972 36 22.5465 169.568 3.81592 210.528C1.30154 216.017 1e-08 221.984 0 228.021C0 234.059 1.30154 240.026 3.81592 245.515C22.5465 286.432 95.9972 420 255.997 420C415.997 420 489.448 286.432 508.179 245.472C510.688 239.989 511.987 234.03 511.987 228C511.987 221.97 510.688 216.011 508.179 210.528ZM255.997 377.333C121.448 377.333 58.6639 262.859 42.6639 228.235C58.6639 193.141 121.448 78.6667 255.997 78.6667C390.227 78.6667 453.032 192.651 469.331 228C453.032 263.349 390.227 377.333 255.997 377.333Z" fill="black"/>
<path d="M255.997 121.333C234.9 121.333 214.277 127.589 196.736 139.31C179.195 151.03 165.523 167.689 157.45 187.18C149.376 206.671 147.264 228.118 151.38 248.809C155.495 269.501 165.654 288.507 180.572 303.424C195.49 318.342 214.496 328.501 235.187 332.617C255.878 336.733 277.326 334.62 296.816 326.547C316.307 318.473 332.966 304.802 344.687 287.261C356.408 269.719 362.663 249.096 362.663 228C362.63 199.72 351.381 172.609 331.384 152.612C311.388 132.616 284.276 121.367 255.997 121.333ZM255.997 292C243.339 292 230.965 288.246 220.44 281.214C209.916 274.181 201.712 264.186 196.868 252.491C192.024 240.797 190.757 227.929 193.226 215.514C195.696 203.099 201.791 191.695 210.742 182.745C219.692 173.794 231.096 167.699 243.511 165.229C255.926 162.76 268.794 164.027 280.488 168.871C292.183 173.715 302.178 181.918 309.211 192.443C316.243 202.968 319.997 215.342 319.997 228C319.997 244.974 313.254 261.252 301.252 273.255C289.249 285.257 272.971 292 255.997 292Z" fill="black"/>
</g>
<defs>
<clipPath id="clip0_279_12">
<rect width="511.99" height="456.83" fill="white"/>
</clipPath>
</defs>
</svg>
