<svg width="512" height="457" viewBox="0 0 512 457" fill="none" xmlns="http://www.w3.org/2000/svg">
<path d="M508.179 210.944C487.568 166.245 457.379 126.624 419.752 94.8907L484.435 30.208L454.248 0L383.997 70.1867C345.114 47.6954 300.915 36.0341 255.997 36.416C95.9973 36.416 22.5466 169.984 3.81592 210.944C1.30154 216.433 0 222.4 0 228.437C0 234.475 1.30154 240.442 3.81592 245.931C24.4268 290.63 54.6153 330.25 92.2426 361.984L27.5813 426.667L57.7466 456.832L127.997 386.645C166.88 409.137 211.08 420.798 255.997 420.416C415.997 420.416 489.448 286.848 508.179 245.888C510.688 240.405 511.987 234.446 511.987 228.416C511.987 222.386 510.688 216.427 508.179 210.944ZM42.6639 228.651C58.6639 193.557 121.448 79.0827 255.997 79.0827C289.482 78.8869 322.528 86.6987 352.381 101.867L314.728 139.52C294.246 125.922 269.691 119.829 245.229 122.275C220.767 124.721 197.904 135.555 180.52 152.939C163.136 170.322 152.302 193.185 149.856 217.648C147.411 242.11 153.503 266.665 167.101 287.147L122.749 331.499C88.6239 303.71 61.2425 268.546 42.6639 228.651ZM319.997 228.416C319.997 245.39 313.254 261.669 301.252 273.671C289.25 285.673 272.971 292.416 255.997 292.416C246.494 292.379 237.121 290.191 228.584 286.016L313.597 201.003C317.772 209.54 319.96 218.912 319.997 228.416ZM191.997 228.416C191.997 211.442 198.74 195.163 210.742 183.161C222.745 171.159 239.023 164.416 255.997 164.416C265.501 164.453 274.873 166.641 283.411 170.816L198.397 255.829C194.222 247.292 192.034 237.92 191.997 228.416ZM255.997 377.749C222.513 377.945 189.466 370.133 159.613 354.965L197.267 317.312C217.748 330.91 242.303 337.003 266.766 334.557C291.228 332.111 314.091 321.277 331.475 303.893C348.858 286.51 359.692 263.647 362.138 239.184C364.584 214.722 358.491 190.167 344.893 169.685L389.224 125.355C423.416 153.169 450.814 188.417 469.331 228.416C453.032 263.765 390.227 377.749 255.997 377.749Z" fill="black"/>
</svg>
