<svg width="27" height="26" viewBox="0 0 27 26" fill="none" xmlns="http://www.w3.org/2000/svg">
<path d="M26.7671 19.6021C26.5039 20.4257 26.0235 21.1802 25.3519 21.8049L22.6181 24.3478C21.9465 24.9725 21.1343 25.4194 20.2489 25.6642V20.6486C20.2489 20.0709 20.754 19.6021 21.3739 19.6021H26.7671ZM27 5.99816V17.5092H21.375C19.5142 17.5092 18 18.9177 18 20.6486V25.8809H5.625C2.52338 25.8809 0 23.5337 0 20.6486V5.99816C0 3.11307 2.52338 0.765869 5.625 0.765869H21.375C24.4766 0.765869 27 3.11307 27 5.99816ZM7.875 19.0789C7.875 18.2124 7.119 17.5092 6.1875 17.5092C5.256 17.5092 4.5 18.2124 4.5 19.0789C4.5 19.9453 5.256 20.6486 6.1875 20.6486C7.119 20.6486 7.875 19.9453 7.875 19.0789ZM7.875 13.3234C7.875 12.4569 7.119 11.7537 6.1875 11.7537C5.256 11.7537 4.5 12.4569 4.5 13.3234C4.5 14.1898 5.256 14.8931 6.1875 14.8931C7.119 14.8931 7.875 14.1898 7.875 13.3234ZM7.875 7.56785C7.875 6.70138 7.119 5.99816 6.1875 5.99816C5.256 5.99816 4.5 6.70138 4.5 7.56785C4.5 8.43431 5.256 9.13753 6.1875 9.13753C7.119 9.13753 7.875 8.43431 7.875 7.56785Z" fill="white"/>
</svg>
