<svg width="136" height="147" viewBox="0 0 136 147" fill="none" xmlns="http://www.w3.org/2000/svg">
<path d="M37.8985 0.861468C31.6395 2.81381 25.725 8.78569 23.6004 15.3318C22.452 18.7771 22.3946 20.2126 22.3946 40.4826V62.0158H12.9774C3.67505 62.0158 3.50278 62.0158 1.78012 63.5087L4.55639e-05 65.0017V84.64C4.55639e-05 106.518 -0.0573763 106.288 3.90473 107.379C5.05317 107.666 9.70434 107.953 14.2407 107.953H22.3946V118.002C22.3946 126.615 22.5668 128.51 23.6004 131.669C25.0934 136.262 28.1368 140.339 32.1563 143.153C37.8411 147.115 36.6926 147 79.3571 147C115.82 147 117.887 146.943 120.873 145.909C127.017 143.727 132.185 138.559 134.769 132.07C135.745 129.659 135.803 126.328 135.803 85.8458V42.2052L134.367 39.3341C132.415 35.372 101.579 4.3642 97.043 1.78022L93.8848 0.000139713L67.1836 0.0575616C46.0524 0.0575616 39.9657 0.229827 37.8985 0.861468ZM87.6833 12.3458C89.693 13.7814 90.1524 16.7673 90.1524 29.1705C90.1524 41.5162 90.4969 43.4685 92.9661 44.7892C93.6551 45.1337 98.7083 45.3634 105.197 45.3634C117.715 45.4208 120.643 45.8228 122.653 47.7177L124.031 49.0384L123.916 88.4873L123.744 127.936L122.022 130.405C121.103 131.726 119.265 133.391 118.002 134.023C115.763 135.229 115.131 135.229 78.9551 135.229C43.2387 135.229 42.1477 135.171 40.2528 134.08C39.1618 133.449 37.4965 131.956 36.5204 130.75L34.7403 128.51L34.568 118.232L34.3958 107.953H67.8727C89.3485 107.953 102.096 107.724 103.532 107.322C107.666 106.173 107.666 106.116 107.666 84.5251V65.3462L105.771 63.681L103.934 62.0158H69.1934H34.4532V40.9994C34.4532 18.0306 34.4532 17.9158 37.8411 14.7001C40.9993 11.6568 42.1477 11.5419 65.1739 11.4845C83.3766 11.4845 86.6497 11.5994 87.6833 12.3458ZM59.0872 67.8154C62.877 68.6193 63.279 69.1935 62.3602 72.6388C61.7286 75.1654 61.4415 75.5099 60.2356 75.3376C59.4891 75.2802 57.5368 75.0505 55.929 74.8783C53.2875 74.5337 52.8856 74.6486 52.0817 75.797C50.761 77.7494 51.6797 78.8978 56.1586 81.1947C61.9583 84.1232 64.3126 87.1091 64.3126 91.588C64.3126 97.4451 59.0297 102.154 52.4836 102.211C49.4403 102.211 43.9278 100.833 43.3536 99.9142C43.009 99.34 44.1 94.172 44.7891 93.4255C44.9614 93.1958 46.1098 93.4255 47.3157 93.8849C50.0719 95.0333 55.0676 94.8611 55.8715 93.5404C57.1348 91.5306 55.8715 89.9228 51.3352 87.6259C45.7653 84.7548 43.6407 82.1134 43.6407 77.9791C43.6407 74.3615 45.3059 71.0884 48.0047 69.4806C51.5075 67.2986 54.5508 66.8392 59.0872 67.8154ZM32.2711 68.3322C33.477 68.6767 34.568 69.1935 34.7403 69.4232C34.9125 69.7103 34.7403 71.2607 34.3383 72.9259L33.6493 75.9119L31.6395 75.4525C23.7727 73.6724 19.5235 76.888 19.5235 84.6974C19.5235 87.5111 19.868 89.3486 20.5571 90.6693C22.452 94.172 26.7586 95.5501 31.4098 94.2294C33.6493 93.5978 33.8215 93.8275 34.2809 97.5025C34.568 100.259 34.568 100.316 32.7305 101.005C31.6969 101.35 28.9981 101.637 26.7012 101.637C17.2266 101.637 11.4844 95.4927 11.4844 85.2142C11.4844 76.7732 15.1594 71.0884 22.3372 68.5619C24.8637 67.6431 29.4 67.5857 32.2711 68.3322ZM79.2997 69.3083C79.5868 70.1123 80.9075 75.0505 82.2282 80.2185C83.4915 85.3865 84.7547 89.4634 84.9844 89.1763C85.2141 88.9466 86.4774 84.2955 87.8555 78.9552C89.2336 73.5576 90.5544 68.849 90.8989 68.447C91.5305 67.6431 97.9618 67.4708 98.4211 68.2173C98.5934 68.5044 96.4688 76.1416 93.77 85.2142L88.7743 101.694L84.5251 101.522L80.2184 101.35L75.5098 84.8697C72.9258 75.797 70.9161 68.2173 71.0883 68.0451C71.2606 67.8728 73.0407 67.758 75.0504 67.758C78.4383 67.758 78.7254 67.8728 79.2997 69.3083Z" fill="black"/>
</svg>
