<svg width="120" height="120" viewBox="0 0 120 120" fill="none" xmlns="http://www.w3.org/2000/svg">
<path d="M54.1757 0.98146C47.7413 1.59162 40.4195 3.64396 34.4843 6.5006C28.3828 9.44044 23.7789 12.6022 19.064 17.1229C13.9054 22.0041 10.2167 27.0518 6.91635 33.6803C-6.39615 60.3885 2.36791 93.0041 27.2734 109.451C48.2406 123.29 75.448 122.458 95.6664 107.371C100.714 103.626 105.789 98.2459 109.423 92.81C110.338 91.4787 111.974 88.5389 113.084 86.3201C123.484 65.4361 120.627 40.392 105.734 22.226C93.3921 7.16623 73.8671 -0.876743 54.1757 0.98146ZM69.0136 13.6838C91.4507 18.4264 107.148 37.5076 107.148 60.0002C107.148 85.9873 85.9871 107.149 59.9999 107.149C36.398 107.149 16.3738 89.5651 13.2398 66.1018C9.82846 40.392 28.1331 16.7069 54.1757 13.1291C57.3374 12.7131 65.8796 13.0182 69.0136 13.6838Z" fill="black"/>
<path d="M56.0892 24.6114C51.8736 25.4989 48.5732 27.3293 45.2728 30.6297C42.5548 33.32 42.1388 34.2075 42.3052 36.87C42.4994 40.1426 44.8013 42.2504 48.1294 42.2504C50.3482 42.2504 51.2079 41.8067 53.5099 39.5602C54.9521 38.118 55.8673 37.4524 57.0322 37.0086C61.5529 35.3168 66.6837 37.3415 68.7915 41.6403C69.4572 42.9993 69.5681 43.554 69.5681 45.5786C69.5681 47.5477 69.4572 48.1856 68.847 49.4614C67.8208 51.6524 66.2122 53.0946 63.2447 54.5368C59.9443 56.1176 58.1415 57.5598 56.5884 59.9172C54.758 62.6629 54.0923 64.8262 54.0646 68.0434C54.0369 70.4563 54.0923 70.7891 54.8134 71.9817C57.0599 75.809 62.9119 75.8645 65.1306 72.0926C65.5466 71.3993 65.9072 70.2344 65.9904 69.4024C66.2677 66.7676 66.4619 66.518 69.263 65.1868C79.608 60.1946 84.3228 49.0176 80.5509 38.3399C79.4138 35.1504 78.1658 33.2368 75.3923 30.4356C73.2568 28.3 72.4802 27.7176 70.2615 26.636C68.8193 25.9149 66.8779 25.1383 65.9626 24.8887C63.6607 24.2786 58.3912 24.1399 56.0892 24.6114Z" fill="black"/>
<path d="M57.7812 83.8793C54.9245 85.0718 53.3714 88.3168 54.1757 91.3398C54.3976 92.1996 54.9245 93.0039 55.812 93.8636C60.8042 98.8558 68.6253 92.7265 65.214 86.5418C64.8535 85.9039 64.0492 85.0164 63.3835 84.5726C62.3851 83.8793 61.8859 83.7129 60.3327 83.6574C59.3066 83.6019 58.1695 83.7129 57.7812 83.8793Z" fill="black"/>
</svg>
