<svg width="392" height="460" viewBox="0 0 392 460" fill="none" xmlns="http://www.w3.org/2000/svg">
<path d="M196.187 459.118H195.757C193.563 458.61 191.693 457.374 189.748 456.343C179.97 451.157 170.385 445.632 161.015 439.737C149.611 432.561 138.584 424.849 127.957 416.561C122.224 412.089 116.619 407.463 111.162 402.663C108.18 400.039 105.277 397.325 102.362 394.625C98.3656 390.923 94.5605 387.03 90.7498 383.145C86.0125 378.316 81.5047 373.271 77.1175 368.118C70.9155 360.832 65.0291 353.304 59.5162 345.485C53.4038 336.815 47.7088 327.882 42.5073 318.632C39.2402 312.823 36.1446 306.925 33.2567 300.921C28.3941 290.812 24.084 280.469 20.3146 269.9C16.4616 259.097 13.2045 248.117 10.4873 236.977C8.40836 228.453 6.65246 219.86 5.23466 211.202C4.15916 204.635 3.24186 198.044 2.52426 191.425C1.90746 185.735 1.41806 180.038 1.01366 174.329C0.71516 170.116 0.589858 165.903 0.488358 161.683C0.416858 158.711 0.453359 155.74 0.408459 152.768C0.408359 151.209 0.412958 149.651 0.405258 148.094C0.403358 147.712 0.483658 147.307 0.193558 146.977V144.827C0.644558 143.545 0.300359 142.219 0.408459 140.917C0.408459 140.204 0.408459 139.491 0.408459 138.778C0.408459 137.339 0.408459 135.9 0.408459 134.462C0.415859 130.169 0.467059 125.872 0.668659 121.587C0.886659 116.951 1.24126 112.319 1.62626 107.69C1.97576 103.488 2.35076 99.2881 2.78826 95.0956C3.24806 90.6892 3.77336 86.2889 4.36576 81.8969C5.07286 76.6545 5.81286 71.4171 6.64406 66.1932C7.45296 61.1092 8.35486 56.0412 9.29816 50.9801C10.8315 42.7539 12.5727 34.5715 14.3887 26.4042C14.7767 24.6594 15.2977 24.3858 16.9327 25.2065C23.0836 28.2942 29.424 30.9301 35.9522 33.0976C43.6746 35.6616 51.5837 37.4662 59.643 38.5686C62.9679 39.0234 66.3143 39.3076 69.6705 39.5181C74.8242 39.8413 79.9828 39.8007 85.1246 39.6273C91.694 39.4058 98.2244 38.5734 104.708 37.4384C115.302 35.5838 125.643 32.773 135.785 29.2148C142.575 26.8328 149.23 24.118 155.787 21.1503C160.354 19.0828 164.836 16.8431 169.302 14.5723C177.025 10.6453 184.512 6.29598 191.89 1.75628C192.923 1.12068 193.909 0.391678 195.109 0.075178C196.028 -0.025422 196.771 0.377681 197.481 0.891081C201.484 3.78268 205.533 6.60628 209.676 9.29258C217.704 14.4965 225.996 19.2373 234.629 23.3569C245.897 28.7339 257.564 33.0262 269.732 35.8947C275.895 37.3476 282.119 38.4444 288.424 39.0747C291.376 39.3697 294.333 39.5437 297.291 39.7418C300.407 39.9504 303.518 39.9581 306.623 39.8729C311.729 39.7328 316.82 39.3465 321.893 38.677C327.927 37.8806 333.889 36.7443 339.78 35.2328C348.985 32.8712 357.89 29.6594 366.569 25.7928C370.332 24.1165 374.001 22.2563 377.684 20.4211C379.27 19.6313 379.775 19.8671 380.122 21.5974C382.014 31.027 383.747 40.4863 385.261 49.9834C386.392 57.0772 387.403 64.1909 388.276 71.3214C388.867 76.1444 389.379 80.9773 389.868 85.813C390.316 90.2564 390.72 94.704 391.066 99.1546C391.342 102.715 391.599 106.282 391.644 109.858C391.699 114.33 391.918 118.798 391.859 123.273C391.859 124.661 391.859 126.047 391.859 127.434C391.859 128.941 391.859 130.446 391.859 131.952C391.859 135.297 391.859 138.641 391.859 141.985C391.859 143.622 391.859 145.259 391.859 146.895C391.859 148.046 391.859 149.198 391.859 150.348C391.93 154.892 391.767 159.436 391.614 163.976C391.425 169.585 390.85 175.171 390.299 180.758C389.395 189.914 388.156 199.021 386.587 208.085C385.255 215.775 383.677 223.416 381.843 231.003C379.495 240.719 376.767 250.324 373.562 259.792C369.965 270.417 365.876 280.847 361.194 291.043C356.257 301.794 350.775 312.259 344.682 322.397C337.442 334.444 329.46 345.981 320.7 356.975C316.439 362.323 312.042 367.555 307.467 372.641C302.965 377.646 298.39 382.581 293.605 387.313C286.402 394.438 278.948 401.291 271.222 407.853C264.56 413.51 257.739 418.965 250.743 424.197C233.974 436.74 216.384 448.026 198.186 458.372C197.546 458.736 196.808 458.752 196.187 459.118Z" fill="#FDF000"/>
<path d="M391.782 142.05C391.769 141.695 391.746 141.34 391.746 140.984C391.743 138.314 391.743 135.644 391.746 132.974C391.747 132.618 391.773 132.263 391.788 131.908C391.859 131.808 391.918 131.82 391.966 131.928V142.032C391.915 142.146 391.854 142.152 391.782 142.05Z" fill="#FFF54F"/>
<path d="M0.593159 153.049C0.391259 152.527 0.432058 151.97 0.371258 151.427C0.347858 151.218 0.315459 151.021 0.193359 150.846L0.193558 146.977C0.414158 147.042 0.573561 147.168 0.595261 147.412C0.610961 147.588 0.616759 147.766 0.618259 147.943C0.629859 149.327 0.643161 150.711 0.646561 152.095C0.647361 152.413 0.611959 152.731 0.593159 153.049Z" fill="#FEF32D"/>
<path d="M0.193459 138.163C0.342959 137.992 0.38406 137.786 0.38686 137.567C0.39596 136.855 0.403259 136.142 0.414459 135.429C0.418359 135.18 0.415058 134.929 0.446758 134.683C0.464158 134.548 0.547957 134.422 0.601757 134.292C0.616457 134.577 0.646358 134.862 0.643158 135.146C0.629858 136.362 0.606757 137.578 0.587257 138.794C0.439657 139.273 0.55836 139.764 0.51136 140.247C0.49106 140.456 0.617159 140.783 0.193459 140.742V138.163Z" fill="#FFFCC5"/>
<path d="M0.608158 140.947C0.610358 142.029 0.61296 143.111 0.61396 144.194C0.61396 144.263 0.603357 144.333 0.594757 144.402C0.565057 144.641 0.410258 144.763 0.193558 144.827L0.193459 142.247C0.537059 141.879 -0.0398419 141.218 0.608158 140.947Z" fill="#FEF32D"/>
<path d="M391.782 142.05C391.843 142.045 391.905 142.039 391.966 142.032L391.966 146.977C391.914 147.097 391.852 147.096 391.783 146.991C391.768 146.777 391.738 146.563 391.739 146.349C391.75 144.916 391.767 143.483 391.782 142.05Z" fill="#FFF886"/>
<path d="M391.966 131.928C391.907 131.919 391.847 131.912 391.788 131.908C391.773 130.547 391.756 129.187 391.745 127.826C391.743 127.684 391.772 127.542 391.787 127.4C391.856 127.294 391.915 127.299 391.966 127.414V131.928Z" fill="#FFF885"/>
<path d="M391.966 127.414C391.907 127.404 391.847 127.399 391.787 127.4C391.773 126.071 391.757 124.743 391.746 123.414C391.745 123.311 391.771 123.207 391.785 123.103C391.846 123.1 391.906 123.103 391.966 123.115L391.966 127.414Z" fill="#FFFBBE"/>
<path d="M391.783 146.991C391.844 146.989 391.905 146.984 391.966 146.977L391.966 150.631L391.876 150.642L391.786 150.641C391.773 150.294 391.748 149.947 391.75 149.6C391.754 148.73 391.771 147.86 391.783 146.991Z" fill="#FFFCC6"/>
<path d="M0.608158 140.947C0.416358 141.17 0.430761 141.444 0.420361 141.712C0.412261 141.919 0.369759 142.111 0.193459 142.247V140.742C0.250959 140.615 0.342958 140.493 0.359558 140.361C0.403758 140.009 0.40386 139.652 0.44516 139.3C0.46526 139.128 0.538257 138.963 0.587257 138.794C0.698257 139.511 0.597558 140.229 0.608158 140.947Z" fill="#FEF76B"/>
<path d="M196.434 163.544C253.415 163.544 310.396 163.544 367.376 163.544C367.77 163.544 368.164 163.55 368.558 163.557C368.701 163.559 368.837 163.69 368.843 163.819C368.844 163.854 368.855 163.89 368.854 163.925C368.795 165.392 368.74 166.86 368.674 168.327C368.637 169.15 368.587 169.973 368.535 170.795C368.421 172.582 368.305 174.369 368.184 176.156C368.108 177.263 368.021 178.37 367.938 179.477C367.844 180.727 367.758 181.978 367.651 183.227C367.556 184.333 367.437 185.437 367.328 186.542C367.243 187.397 367.159 188.252 367.071 189.107C366.905 190.71 366.75 192.314 366.567 193.915C366.404 195.337 366.209 196.756 366.027 198.177C365.859 199.491 365.696 200.805 365.518 202.118C365.359 203.289 365.193 204.458 365.014 205.626C364.77 207.218 364.516 208.809 364.257 210.399C364.016 211.882 363.776 213.367 363.511 214.846C363.203 216.572 362.883 218.297 362.542 220.017C362.028 222.615 361.519 225.214 360.958 227.802C360.11 231.719 359.184 235.618 358.175 239.497C356.472 246.043 354.568 252.53 352.434 258.949C348.215 271.636 343.136 283.966 337.13 295.911C328.996 312.088 319.299 327.27 308.09 341.487C301.451 349.906 294.348 357.913 286.818 365.544C276.311 376.193 265.073 386.015 253.246 395.168C242.051 403.832 230.401 411.839 218.402 419.344C211.573 423.615 204.645 427.72 197.626 431.672C196.668 432.211 196.858 432.165 195.962 431.74C180.063 424.195 164.721 415.658 150.086 405.866C138.401 398.048 127.275 389.508 116.789 380.138C100.123 365.244 85.4573 348.6 72.9758 330.043C63.6587 316.19 55.7554 301.571 49.1872 286.226C44.3515 274.929 40.2868 263.359 36.9191 251.541C35.281 245.793 33.8124 240.002 32.497 234.172C31.7645 230.926 31.0718 227.671 30.4682 224.397C29.9945 221.828 29.5015 219.262 29.0549 216.688C28.7061 214.678 28.41 212.659 28.1002 210.642C27.8338 208.909 27.5636 207.175 27.3269 205.437C27.066 203.522 26.8383 201.602 26.602 199.683C26.4138 198.155 26.2277 196.628 26.0535 195.098C25.9441 194.138 25.8585 193.175 25.7621 192.213C25.6478 191.072 25.5304 189.933 25.4199 188.792C25.3371 187.936 25.2569 187.081 25.1866 186.224C25.087 185.01 24.9954 183.796 24.9046 182.582C24.7898 181.046 24.6794 179.51 24.5667 177.974C24.5562 177.831 24.5392 177.689 24.5315 177.546C24.4351 175.757 24.3329 173.969 24.2461 172.18C24.1264 169.711 24.0132 167.242 23.9081 164.773C23.8517 163.447 23.732 163.544 25.0616 163.544C38.492 163.544 51.9225 163.544 65.3529 163.544L196.434 163.544Z" fill="#0392E0"/>
<path d="M140.02 53.9968C140.316 53.8727 140.608 53.7369 140.909 53.6262C149.65 50.4149 158.144 46.6413 166.434 42.4046C174.661 38.2003 182.648 33.5773 190.446 28.626C192.138 27.5519 193.812 26.4505 195.496 25.3627C195.706 25.2268 195.914 25.0844 196.136 24.9711C196.217 24.9299 196.361 24.9264 196.434 24.9721C196.738 25.1606 197.029 25.3697 197.318 25.58C201.46 28.5895 205.685 31.477 210.003 34.2268C217.587 39.0563 225.413 43.449 233.551 47.2791C238.928 49.8094 244.415 52.0699 250.009 54.071C250.344 54.1908 250.669 54.339 250.999 54.474C251.309 54.8026 251.447 55.1908 251.443 55.6447C251.44 56.0381 251.455 56.4321 251.455 56.8259C251.455 83.7839 251.458 110.742 251.44 137.7C251.44 138.481 251.742 139.371 250.97 140.015C250.541 140.031 250.112 140.06 249.684 140.06C244.923 140.063 240.162 140.062 235.401 140.062C204.116 140.062 172.831 140.062 141.546 140.06C141.046 140.06 140.546 140.031 140.046 140.015C139.707 139.737 139.656 139.353 139.645 138.949C139.634 138.52 139.631 138.09 139.631 137.661C139.63 110.569 139.629 83.4766 139.635 56.3845C139.635 55.5737 139.488 54.727 140.02 53.9968Z" fill="white"/>
<path d="M140.02 53.9968C140.028 54.4618 140.044 54.9268 140.044 55.3918C140.045 83.0626 140.045 110.733 140.045 138.404C140.045 138.941 140.046 139.478 140.046 140.015C139.546 140.031 139.045 140.062 138.545 140.062C105.849 140.064 73.1524 140.064 40.4562 140.064C35.4067 140.064 30.3573 140.064 25.3078 140.063C24.9497 140.063 24.5915 140.062 24.2336 140.053C23.9441 140.045 23.7967 139.882 23.7888 139.569C23.7834 139.355 23.7855 139.139 23.7892 138.925C23.813 137.528 23.8237 136.13 23.8663 134.734C23.934 132.514 24.0174 130.295 24.1054 128.076C24.1607 126.681 24.2262 125.285 24.3056 123.891C24.4033 122.175 24.5204 120.46 24.6289 118.744C24.6379 118.601 24.6456 118.458 24.6541 118.315C24.7519 116.671 24.8378 115.025 24.9514 113.382C25.0427 112.061 25.1683 110.741 25.2774 109.421C25.354 108.493 25.4295 107.565 25.5035 106.637C25.6003 105.424 25.6864 104.209 25.7934 102.996C25.891 101.891 26.0103 100.787 26.1202 99.683C26.2052 98.8279 26.2928 97.9731 26.3748 97.1177C26.4705 96.1198 26.5536 95.1206 26.6568 94.1234C26.7526 93.1976 26.8678 92.2738 26.974 91.3491C27.0557 90.6378 27.1382 89.9265 27.2179 89.215C27.3894 87.6851 27.5493 86.1539 27.7329 84.6255C27.9037 83.2039 28.1005 81.7854 28.2832 80.3652C28.4522 79.0515 28.6113 77.7364 28.7868 76.4236C28.9623 75.1109 29.1521 73.8001 29.3368 72.4886C29.5066 71.2834 29.6747 70.078 29.8497 68.8735C30.0246 67.6691 30.204 66.4653 30.3871 65.2621C30.5594 64.1297 30.7375 62.9982 30.9157 61.8667C31.1607 60.3109 31.4048 58.7549 31.6556 57.2001C31.8437 56.034 32.0393 54.8691 32.2377 53.7047C32.2674 53.5304 32.3282 53.361 32.3793 53.1908C32.4022 53.1144 32.569 53.0299 32.6428 53.0566C32.9445 53.1659 33.249 53.2688 33.5454 53.3912C37.3183 54.9495 41.1442 56.3615 45.033 57.6052C49.7754 59.1219 54.586 60.3759 59.4646 61.363C61.7085 61.817 63.9623 62.2224 66.2319 62.5386C67.8978 62.7707 69.5621 63.0059 71.2353 63.1834C72.8016 63.3495 74.3692 63.4876 75.9391 63.6158C80.4417 63.9836 84.9507 64.0687 89.4631 63.9591C91.5737 63.9078 93.6852 63.8221 95.7903 63.6301C97.0021 63.5196 98.2175 63.4478 99.4299 63.3428C100.321 63.2656 101.212 63.1778 102.1 63.0679C103.591 62.8834 105.082 62.6919 106.569 62.4766C107.986 62.2715 109.401 62.0555 110.81 61.8025C113.169 61.3786 115.52 60.9157 117.862 60.3996C123.143 59.2357 128.353 57.8129 133.5 56.1572C135.237 55.5984 136.959 54.9937 138.69 54.4142C139.13 54.2667 139.576 54.1355 140.02 53.9968Z" fill="#D92115"/>
<path d="M250.97 140.015C250.97 111.966 250.97 83.918 250.972 55.8698C250.972 55.4046 250.989 54.9393 250.999 54.474C251.343 54.5703 251.692 54.6511 252.029 54.7656C255.386 55.9038 258.775 56.9363 262.197 57.8565C265.793 58.8231 269.417 59.6611 273.071 60.3787C275.389 60.834 277.717 61.2324 280.052 61.5831C281.963 61.87 283.878 62.1355 285.803 62.3136C286.801 62.4059 287.794 62.5438 288.792 62.6426C289.682 62.7309 290.574 62.8073 291.467 62.8649C292.968 62.9618 294.469 63.0757 295.972 63.1173C298.513 63.1876 301.053 63.3292 303.597 63.3128C306.284 63.2954 308.967 63.1685 311.651 63.0788C313.153 63.0286 314.651 62.8717 316.15 62.7572C317.328 62.6673 318.506 62.5813 319.682 62.4703C320.644 62.3795 321.603 62.2566 322.563 62.1437C323.274 62.0601 323.983 61.9673 324.694 61.8829C327.503 61.5494 330.293 61.0987 333.079 60.6161C340.068 59.4055 346.962 57.7841 353.777 55.8252C356.013 55.1827 358.231 54.4808 360.458 53.8089C360.627 53.7578 360.803 53.7285 360.977 53.6906C361.056 53.6733 361.206 53.7723 361.227 53.8537C361.288 54.0967 361.363 54.3377 361.402 54.5844C361.719 56.6364 362.03 58.6895 362.342 60.7423C362.596 62.4057 362.856 64.0681 363.1 65.7329C363.282 66.9727 363.441 68.2158 363.612 69.4572C363.793 70.7695 363.977 72.0812 364.157 73.3936C364.25 74.0676 364.34 74.7419 364.425 75.4168C364.637 77.0862 364.852 78.7552 365.052 80.4261C365.23 81.9193 365.387 83.415 365.557 84.9092C365.74 86.5101 365.933 88.1097 366.109 89.7113C366.219 90.7079 366.303 91.7073 366.402 92.705C366.509 93.774 366.621 94.8423 366.728 95.9112C366.813 96.7664 366.9 97.6214 366.976 98.4775C367.076 99.6191 367.165 100.762 367.261 101.904C367.373 103.224 367.487 104.544 367.601 105.864C367.61 105.971 367.625 106.078 367.632 106.185C367.729 107.614 367.822 109.044 367.921 110.473C368.029 112.009 368.142 113.545 368.252 115.081C368.258 115.153 368.265 115.224 368.269 115.295C368.361 117.048 368.458 118.801 368.543 120.554C368.665 123.058 368.779 125.563 368.896 128.068C368.901 128.175 368.908 128.282 368.91 128.39C368.997 131.935 369.084 135.481 369.169 139.026C369.193 140.042 369.182 140.072 368.196 140.065C367.945 140.063 367.694 140.065 367.443 140.065C329.155 140.065 290.866 140.065 252.578 140.062C252.042 140.062 251.506 140.031 250.97 140.015Z" fill="#D82215"/>
<path d="M152.99 300.36C152.99 276.355 152.99 252.35 152.99 228.345C152.99 227.987 152.988 227.628 152.995 227.27C153.028 225.626 154.35 224.215 156.081 224.157C156.368 224.147 156.654 224.148 156.941 224.148C169.226 224.148 181.511 224.151 193.797 224.144C195.197 224.143 196.592 224.2 197.974 224.407C201.233 224.893 204.289 225.962 207.115 227.672C208.935 228.774 210.545 230.134 212.038 231.64C217.094 236.74 220.506 242.783 222.389 249.701C222.982 251.882 223.391 254.1 223.651 256.343C223.992 259.269 224.04 262.208 223.851 265.143C223.54 269.955 222.6 274.651 221.071 279.224C218.659 286.438 215.032 292.975 210.123 298.793C209.684 299.313 209.231 299.822 208.774 300.326C208.394 300.744 208.557 300.808 208.912 301.056C208.941 301.076 208.974 301.092 209.004 301.111C209.035 301.129 209.065 301.148 209.096 301.167C213.141 303.743 216.477 307.049 219.198 310.988C221.639 314.522 223.449 318.364 224.738 322.453C225.569 325.087 226.15 327.777 226.538 330.514C226.867 332.826 227.008 335.148 227.016 337.476C227.023 339.265 226.935 341.054 226.755 342.84C226.369 346.67 225.571 350.406 224.329 354.046C222.613 359.075 220.132 363.689 216.758 367.808C214.243 370.878 211.332 373.513 208.019 375.7C207.78 375.858 207.539 376.013 207.294 376.162C205.917 377 204.43 377.448 202.811 377.441C200.483 377.433 198.154 377.432 195.826 377.422C192.317 377.407 188.807 377.391 185.297 377.368C181.608 377.345 177.919 377.309 174.23 377.285C170.506 377.261 166.781 377.244 163.056 377.227C161.086 377.217 159.116 377.209 157.146 377.207C156.641 377.207 156.148 377.157 155.665 376.999C154.17 376.511 153.093 375.132 153.002 373.558C152.977 373.129 152.99 372.698 152.99 372.268C152.99 348.299 152.99 324.329 152.99 300.36Z" fill="white"/>
<path d="M235.381 348.385C235.381 339.681 235.38 330.976 235.383 322.271C235.383 321.842 235.385 321.41 235.434 320.985C235.558 319.915 236.376 319.133 237.519 319.006C237.768 318.979 238.02 318.99 238.271 318.99C242.318 318.989 246.364 318.989 250.411 318.99C250.661 318.99 250.914 318.979 251.162 319.004C252.013 319.089 252.601 319.697 252.669 320.557C252.688 320.806 252.68 321.058 252.68 321.309C252.681 322.598 252.679 323.888 252.681 325.177C252.681 325.464 252.685 325.75 252.698 326.036C252.709 326.273 252.843 326.432 253.05 326.535C253.235 326.627 253.524 326.601 253.656 326.474C253.733 326.399 253.811 326.323 253.871 326.236C254.033 326 254.188 325.759 254.343 325.518C260.915 315.313 267.487 305.107 274.057 294.9C274.231 294.63 274.411 294.36 274.554 294.073C274.763 293.656 274.577 293.099 274.162 292.859C274.042 292.79 273.897 292.736 273.761 292.727C273.404 292.704 273.045 292.706 272.687 292.706C267.173 292.705 261.658 292.681 256.143 292.72C254.505 292.731 252.943 292.44 251.4 291.954C248.117 290.922 245.325 289.103 242.938 286.643C241.155 284.805 239.713 282.719 238.513 280.462C237.094 277.793 236.067 274.974 235.303 272.055C234.73 269.87 234.327 267.651 234.066 265.41C233.925 264.202 233.821 262.988 233.765 261.77C233.664 259.584 233.696 257.401 233.809 255.218C233.871 254.002 234.014 252.793 234.164 251.584C234.342 250.162 234.578 248.751 234.873 247.349C235.724 243.301 237.01 239.404 238.949 235.737C239.77 234.183 240.704 232.699 241.782 231.309C244.488 227.816 248.035 225.695 252.357 224.864C253.269 224.689 254.196 224.572 255.132 224.587C255.419 224.592 255.705 224.587 255.992 224.587C270.101 224.587 284.211 224.587 298.32 224.587C298.678 224.587 299.037 224.585 299.394 224.597C300.115 224.622 301.011 225.195 301.123 226.222C301.161 226.577 301.17 226.937 301.171 227.294C301.175 229.05 301.173 230.805 301.173 232.56C301.173 238.542 301.174 244.525 301.172 250.507C301.172 250.901 301.175 251.297 301.136 251.687C301.069 252.359 300.628 252.792 299.955 252.877C299.743 252.903 299.526 252.899 299.312 252.899C296.375 252.9 293.439 252.901 290.502 252.898C290.252 252.898 289.999 252.893 289.753 252.854C289.346 252.791 289.056 252.465 289.005 252.05C288.953 251.624 288.929 251.193 288.851 250.772C288.425 248.459 287.145 246.792 285.016 245.794C283.845 245.245 282.609 244.88 281.354 244.579C278.342 243.854 275.281 243.614 272.19 243.658C270.324 243.685 268.471 243.834 266.634 244.159C264.868 244.472 263.139 244.92 261.484 245.628C260.46 246.067 259.49 246.598 258.61 247.289C257.957 247.802 257.399 248.399 256.931 249.087C255.625 251.008 254.73 253.102 254.292 255.382C253.767 258.11 253.886 260.81 254.867 263.424C256.114 266.744 258.55 268.716 261.99 269.453C262.649 269.594 263.342 269.585 264.02 269.631C264.306 269.65 264.593 269.635 264.88 269.635C273.653 269.635 282.427 269.641 291.201 269.626C292.218 269.624 293.193 269.779 294.16 270.065C295.367 270.423 296.519 270.905 297.595 271.561C300.339 273.233 302.188 275.622 303.198 278.657C304 281.071 304.208 283.552 303.95 286.081C303.494 290.55 301.957 294.641 299.612 298.436C283.804 324.023 267.983 349.603 252.167 375.185C251.979 375.49 251.795 375.797 251.599 376.097C250.925 377.134 249.978 377.688 248.731 377.696C247.729 377.703 246.726 377.702 245.723 377.699C243.252 377.693 240.781 377.684 238.311 377.675C237.988 377.674 237.666 377.672 237.344 377.66C236.505 377.627 235.663 376.889 235.498 376.102C235.439 375.823 235.405 375.537 235.386 375.252C235.367 374.967 235.381 374.679 235.381 374.393C235.381 365.724 235.381 357.054 235.381 348.385Z" fill="white"/>
<path d="M138.214 298.864C138.214 322.684 138.214 346.504 138.213 370.324C138.213 370.718 138.211 371.112 138.197 371.506C138.167 372.347 137.306 372.903 136.532 372.802C136.217 372.761 135.91 372.64 135.608 372.532C131.883 371.209 128.359 369.471 125.01 367.374C121.2 364.989 117.719 362.19 114.516 359.04C110.024 354.621 106.21 349.667 102.899 344.316C99.6304 339.035 96.9227 333.475 94.645 327.701C92.4217 322.065 90.6525 316.287 89.2542 310.394C89.2048 310.186 89.1696 309.972 89.1531 309.759C89.117 309.294 89.3173 308.927 89.6666 308.634C89.7486 308.565 89.8371 308.502 89.9304 308.45C91.2756 307.702 92.6229 306.958 93.9679 306.21C94.3273 306.01 94.7077 305.962 95.11 306.012C95.4051 306.048 95.6701 306.156 95.8763 306.364C96.1277 306.618 96.362 306.89 96.5918 307.164C98.594 309.551 100.594 311.94 102.594 314.329C106.364 318.833 110.133 323.337 113.905 327.839C114.112 328.086 114.315 328.342 114.557 328.551C115.219 329.123 116.522 328.976 116.93 328.029C116.999 327.868 117.047 327.688 117.061 327.514C117.085 327.229 117.074 326.941 117.074 326.655C117.074 300.148 117.074 273.642 117.074 247.135C117.074 246.884 117.08 246.633 117.071 246.383C117.039 245.493 116.489 244.906 115.608 244.834C115.323 244.811 115.036 244.822 114.749 244.822C112.243 244.822 109.736 244.822 107.229 244.821C106.943 244.821 106.657 244.817 106.37 244.807C106.035 244.796 105.745 244.661 105.492 244.449C105.171 244.18 105.012 243.831 105.019 243.411C105.025 243.085 105.125 242.78 105.214 242.469C105.984 239.786 106.742 237.1 107.509 234.416C108.266 231.767 109.028 229.119 109.789 226.471C109.878 226.162 109.951 225.845 110.07 225.547C110.287 225.004 110.712 224.691 111.285 224.613C111.602 224.57 111.928 224.588 112.25 224.588C115.83 224.586 119.411 224.587 122.992 224.587C127.289 224.587 131.586 224.587 135.883 224.587C136.205 224.587 136.528 224.584 136.85 224.601C137.182 224.619 137.473 224.759 137.724 224.972C137.978 225.187 138.152 225.454 138.184 225.794C138.201 225.972 138.209 226.151 138.212 226.33C138.216 226.652 138.214 226.974 138.214 227.297C138.214 251.153 138.214 275.009 138.214 298.864Z" fill="white"/>
<path d="M171.034 197.926C171.034 192.838 171.033 187.751 171.035 182.663C171.035 182.305 171.048 181.947 171.06 181.59C171.064 181.461 171.206 181.336 171.35 181.326C171.528 181.314 171.707 181.301 171.885 181.301C173.497 181.299 175.108 181.299 176.72 181.299C176.792 181.299 176.864 181.305 176.935 181.301C177.242 181.282 177.494 181.379 177.684 181.631C177.814 181.802 177.959 181.961 178.096 182.127C182.408 187.392 186.72 192.658 191.031 197.923C191.758 198.81 192.481 199.7 193.21 200.584C193.346 200.749 193.503 200.896 193.655 201.046C193.667 201.058 193.725 201.04 193.75 201.021C193.864 200.934 193.811 201.104 193.826 200.962C193.845 200.785 193.87 200.607 193.871 200.429C193.875 199.498 193.873 198.566 193.873 197.635C193.873 192.655 193.872 187.675 193.874 182.695C193.874 182.337 193.886 181.979 193.898 181.621C193.902 181.494 194.048 181.347 194.173 181.334C194.315 181.319 194.457 181.302 194.599 181.302C196.677 181.3 198.754 181.3 200.831 181.303C200.973 181.303 201.121 181.31 201.253 181.353C201.343 181.382 201.439 181.467 201.481 181.552C201.525 181.642 201.516 181.762 201.518 181.868C201.523 182.191 201.522 182.513 201.522 182.836C201.523 192.903 201.523 202.971 201.522 213.038C201.522 213.36 201.524 213.683 201.516 214.005C201.507 214.383 201.394 214.495 200.982 214.496C199.155 214.5 197.329 214.495 195.502 214.499C195.227 214.5 195.03 214.388 194.86 214.18C193.977 213.097 193.086 212.021 192.201 210.941C187.911 205.704 183.621 200.466 179.331 195.229C179.195 195.063 179.059 194.896 178.908 194.744C178.873 194.709 178.778 194.726 178.712 194.732C178.687 194.735 178.646 194.773 178.645 194.796C178.632 195.118 178.617 195.44 178.617 195.762C178.616 201.458 178.625 207.155 178.611 212.851C178.607 214.784 178.898 214.478 176.98 214.497C175.333 214.514 173.685 214.502 172.038 214.499C171.788 214.499 171.536 214.494 171.29 214.457C171.208 214.445 171.086 214.335 171.078 214.26C171.043 213.94 171.035 213.617 171.035 213.296C171.033 210.215 171.034 207.133 171.034 204.052V197.926Z" fill="white"/>
<path d="M209.346 197.949C209.346 192.862 209.345 187.775 209.347 182.687C209.347 182.33 209.36 181.972 209.372 181.614C209.376 181.495 209.532 181.337 209.653 181.332C209.974 181.317 210.296 181.301 210.617 181.3C214.95 181.298 219.284 181.299 223.618 181.299C226.805 181.299 229.993 181.298 233.18 181.3C233.502 181.3 233.824 181.314 234.145 181.327C234.29 181.333 234.424 181.459 234.434 181.59C234.445 181.733 234.458 181.876 234.458 182.019C234.46 183.595 234.46 185.171 234.458 186.748C234.458 186.891 234.462 187.039 234.424 187.174C234.399 187.262 234.314 187.355 234.231 187.397C234.141 187.442 234.022 187.441 233.916 187.443C233.594 187.449 233.271 187.448 232.949 187.448C228.15 187.449 223.351 187.449 218.552 187.449C218.229 187.449 217.907 187.452 217.585 187.451C217.079 187.451 217.02 187.607 217.019 188.024C217.015 190.031 217.017 192.037 217.019 194.043C217.019 194.149 217.042 194.255 217.053 194.361C217.067 194.486 217.166 194.571 217.258 194.582C217.541 194.615 217.828 194.625 218.114 194.626C221.301 194.628 224.489 194.627 227.676 194.627C228.966 194.627 230.255 194.625 231.544 194.63C231.757 194.63 231.973 194.642 232.18 194.685C232.266 194.703 232.358 194.805 232.399 194.892C232.442 194.983 232.437 195.102 232.437 195.208C232.439 196.82 232.441 198.433 232.437 200.045C232.437 200.186 232.412 200.33 232.375 200.466C232.358 200.525 232.288 200.582 232.229 200.614C232.169 200.647 232.092 200.66 232.022 200.662C231.7 200.67 231.377 200.673 231.055 200.673C226.829 200.674 222.603 200.673 218.377 200.675C218.02 200.675 217.662 200.691 217.305 200.704C217.175 200.709 217.048 200.851 217.037 200.986C217.032 201.058 217.02 201.129 217.02 201.2C217.019 203.386 217.018 205.571 217.02 207.756C217.02 207.863 217.017 207.977 217.053 208.075C217.088 208.168 217.15 208.27 217.276 208.276C217.597 208.291 217.918 208.314 218.24 208.315C223.361 208.317 228.482 208.316 233.604 208.318C233.997 208.318 234.391 208.333 234.784 208.348C234.922 208.354 235.051 208.49 235.061 208.627C235.072 208.77 235.084 208.912 235.085 209.055C235.086 210.631 235.086 212.208 235.084 213.784C235.084 213.927 235.07 214.07 235.059 214.212C235.049 214.341 234.913 214.465 234.772 214.476C234.665 214.485 234.558 214.496 234.451 214.498C234.2 214.501 233.95 214.5 233.699 214.5C226.035 214.5 218.37 214.501 210.706 214.499C210.349 214.499 209.992 214.481 209.635 214.466C209.508 214.461 209.375 214.314 209.371 214.176C209.359 213.819 209.347 213.461 209.347 213.103C209.345 208.052 209.346 203 209.346 197.949Z" fill="white"/>
<path d="M270.516 197.838C270.516 192.751 270.516 187.663 270.518 182.576C270.519 182.219 270.54 181.862 270.567 181.506C270.571 181.452 270.65 181.389 270.709 181.357C270.769 181.324 270.846 181.314 270.917 181.312C271.203 181.304 271.49 181.3 271.776 181.299C279.298 181.299 286.819 181.299 294.341 181.299C294.591 181.299 294.842 181.297 295.093 181.304C295.477 181.315 295.625 181.414 295.634 181.8C295.636 181.908 295.638 182.015 295.638 182.123C295.639 183.627 295.64 185.132 295.637 186.637C295.637 186.816 295.635 186.997 295.603 187.172C295.586 187.269 295.521 187.371 295.4 187.394C295.295 187.414 295.19 187.441 295.085 187.443C294.762 187.45 294.44 187.448 294.118 187.448C289.211 187.449 284.304 187.447 279.397 187.449C278.108 187.45 278.146 187.337 278.149 188.649C278.152 190.261 278.149 191.874 278.15 193.486C278.15 193.737 278.154 193.987 278.164 194.238C278.172 194.424 278.324 194.589 278.492 194.604C278.599 194.613 278.706 194.624 278.813 194.625C279.099 194.628 279.386 194.627 279.672 194.627C283.899 194.627 288.125 194.625 292.352 194.629C293.676 194.63 293.564 194.515 293.567 195.84C293.57 197.058 293.568 198.276 293.567 199.495C293.567 199.745 293.566 199.996 293.557 200.247C293.548 200.513 293.419 200.653 293.172 200.661C292.85 200.671 292.527 200.673 292.205 200.673C287.943 200.674 283.681 200.673 279.418 200.675C279.097 200.675 278.775 200.689 278.454 200.7C278.333 200.705 278.185 200.861 278.176 200.985C278.166 201.128 278.151 201.271 278.151 201.414C278.15 203.456 278.149 205.498 278.152 207.541C278.152 207.718 278.16 207.901 278.207 208.069C278.23 208.152 278.344 208.259 278.427 208.268C278.745 208.304 279.067 208.314 279.388 208.315C282.074 208.318 284.761 208.317 287.447 208.317C290.061 208.317 292.676 208.315 295.291 208.319C295.539 208.32 295.789 208.348 296.035 208.382C296.092 208.39 296.153 208.466 296.186 208.524C296.22 208.584 296.238 208.661 296.238 208.731C296.24 210.522 296.239 212.313 296.236 214.104C296.236 214.172 296.213 214.247 296.178 214.305C296.145 214.362 296.087 214.433 296.032 214.441C295.821 214.473 295.607 214.498 295.395 214.498C287.408 214.501 279.421 214.501 271.433 214.5C271.29 214.5 271.147 214.5 271.004 214.495C270.617 214.483 270.532 214.389 270.52 213.961C270.516 213.818 270.517 213.675 270.517 213.531C270.516 213.316 270.516 213.101 270.516 212.886V197.838Z" fill="white"/>
<path d="M163.455 214.5C162.417 214.5 161.379 214.502 160.341 214.5C160.127 214.499 159.91 214.502 159.699 214.471C159.608 214.457 159.495 214.38 159.452 214.299C159.303 214.015 159.172 213.72 159.048 213.424C158.33 211.707 157.618 209.989 156.902 208.272C156.805 208.041 156.698 207.815 156.599 207.585C156.55 207.47 156.446 207.43 156.344 207.417C156.168 207.393 155.988 207.389 155.809 207.389C151.156 207.388 146.502 207.388 141.849 207.389C141.706 207.389 141.563 207.394 141.42 207.405C141.264 207.417 141.156 207.514 141.093 207.646C140.97 207.904 140.857 208.167 140.747 208.43C140.031 210.148 139.317 211.866 138.602 213.583C138.52 213.781 138.436 213.979 138.355 214.178C138.262 214.408 138.08 214.491 137.848 214.495C137.74 214.497 137.633 214.5 137.526 214.5C135.378 214.5 133.23 214.5 131.082 214.5C130.975 214.5 130.868 214.495 130.76 214.49C130.536 214.48 130.424 214.337 130.5 214.152C130.637 213.821 130.774 213.491 130.919 213.164C133.634 207.049 136.35 200.935 139.066 194.821C140.911 190.669 142.754 186.516 144.604 182.365C145.14 181.163 144.918 181.306 146.248 181.301C148.002 181.294 149.756 181.298 151.51 181.3C151.796 181.3 152.082 181.301 152.368 181.313C152.555 181.32 152.714 181.391 152.8 181.573C152.923 181.832 153.05 182.088 153.167 182.35C157.823 192.731 162.478 203.112 167.131 213.495C167.246 213.753 167.331 214.025 167.415 214.296C167.427 214.335 167.357 214.44 167.312 214.448C167.139 214.48 166.961 214.498 166.784 214.498C165.674 214.502 164.565 214.5 163.455 214.5Z" fill="white"/>
<path d="M97.8972 197.828C97.8754 195.595 98.2522 193.313 99.1853 191.141C101.064 186.767 104.26 183.752 108.672 182.015C110.825 181.167 113.071 180.768 115.383 180.722C117.073 180.688 118.747 180.809 120.4 181.163C123.031 181.726 125.438 182.774 127.53 184.492C128.224 185.061 128.868 185.682 129.433 186.381C129.537 186.508 129.538 186.661 129.439 186.766C129.389 186.818 129.342 186.872 129.289 186.92C127.862 188.226 126.435 189.531 125.006 190.834C124.928 190.906 124.839 190.973 124.743 191.015C124.688 191.038 124.585 191.032 124.544 190.995C124.306 190.78 124.078 190.552 123.849 190.326C122.41 188.913 120.723 187.941 118.75 187.503C117.484 187.221 116.207 187.139 114.909 187.304C113.726 187.454 112.585 187.728 111.51 188.243C108.456 189.704 106.614 192.129 105.924 195.422C105.514 197.38 105.556 199.347 106.142 201.267C107.245 204.879 109.658 207.187 113.28 208.193C114.993 208.669 116.748 208.696 118.496 208.345C120.556 207.931 122.302 206.922 123.806 205.472C124.037 205.249 124.258 205.015 124.487 204.788C124.594 204.683 124.743 204.688 124.872 204.797C124.981 204.89 125.089 204.983 125.195 205.08C126.489 206.265 127.784 207.45 129.077 208.637C129.208 208.757 129.331 208.888 129.456 209.015C129.52 209.081 129.529 209.244 129.471 209.311C129.261 209.555 129.059 209.806 128.838 210.04C126.945 212.034 124.655 213.397 122.041 214.196C119.376 215.01 116.646 215.262 113.865 214.99C112.108 214.818 110.396 214.472 108.751 213.833C103.816 211.915 100.467 208.454 98.733 203.447C98.1176 201.67 97.8908 199.826 97.8972 197.828Z" fill="white"/>
<path d="M251.952 181.299C256.357 181.299 260.761 181.3 265.165 181.299C266.501 181.298 266.411 181.235 266.412 182.497C266.413 183.894 266.414 185.291 266.41 186.687C266.409 186.901 266.401 187.118 266.359 187.326C266.342 187.407 266.225 187.516 266.144 187.525C265.825 187.56 265.503 187.571 265.182 187.571C262.46 187.574 259.739 187.572 257.018 187.574C256.696 187.574 256.375 187.59 256.054 187.604C255.921 187.611 255.785 187.751 255.78 187.886C255.769 188.243 255.756 188.601 255.756 188.959C255.755 196.409 255.755 203.859 255.755 211.31C255.755 212.169 255.756 213.029 255.752 213.889C255.751 214.031 255.735 214.176 255.701 214.313C255.686 214.371 255.609 214.445 255.551 214.455C255.376 214.485 255.196 214.498 255.018 214.498C252.941 214.501 250.864 214.5 248.787 214.499C248.645 214.499 248.502 214.485 248.36 214.474C248.231 214.463 248.101 214.325 248.088 214.187C248.078 214.08 248.064 213.974 248.063 213.867C248.059 213.544 248.06 213.222 248.06 212.899C248.06 204.948 248.061 196.996 248.059 189.044C248.059 188.651 248.041 188.258 248.027 187.864C248.022 187.734 247.881 187.601 247.745 187.597C247.424 187.586 247.102 187.574 246.78 187.574C244.023 187.572 241.265 187.574 238.508 187.57C238.223 187.57 237.937 187.549 237.654 187.52C237.599 187.514 237.539 187.434 237.507 187.375C237.474 187.315 237.459 187.237 237.459 187.168C237.458 185.341 237.458 183.515 237.462 181.688C237.463 181.443 237.605 181.32 237.88 181.311C238.202 181.301 238.525 181.3 238.847 181.3C243.215 181.299 247.584 181.299 251.952 181.299Z" fill="white"/>
<path d="M189.738 178.783C188.935 178.78 188.183 178.588 187.47 178.218C186.897 177.92 186.362 177.566 185.845 177.18C185.358 176.815 184.867 176.456 184.363 176.117C184.001 175.873 183.593 175.756 183.147 175.758C182.265 175.761 181.647 176.176 181.271 176.952C181.133 177.239 181.063 177.559 180.967 177.865C180.935 177.967 180.916 178.073 180.894 178.178C180.867 178.307 180.755 178.347 180.657 178.355C180.372 178.377 180.086 178.385 179.8 178.384C179.013 178.38 178.227 178.372 177.44 178.361C177.297 178.359 177.17 178.218 177.175 178.081C177.216 177.001 177.392 175.947 177.796 174.94C178.036 174.34 178.352 173.78 178.763 173.276C179.699 172.126 180.911 171.545 182.389 171.47C183.532 171.412 184.593 171.66 185.569 172.249C185.996 172.508 186.407 172.796 186.813 173.087C187.249 173.4 187.667 173.737 188.102 174.051C188.424 174.284 188.78 174.449 189.185 174.482C190.197 174.565 191.078 173.987 191.419 172.998C191.512 172.728 191.565 172.445 191.638 172.168C191.673 172.035 191.806 171.941 191.959 171.938C192.102 171.936 192.246 171.929 192.389 171.929C193.176 171.928 193.963 171.928 194.75 171.93C194.857 171.93 194.964 171.943 195.071 171.952C195.196 171.963 195.333 172.11 195.332 172.243C195.327 174.056 194.834 175.705 193.643 177.101C192.623 178.298 191.282 178.786 189.738 178.783Z" fill="white"/>
<path d="M174.184 103.226C174.184 93.518 174.184 83.8096 174.186 74.1013C174.186 73.7081 174.205 73.3145 174.23 72.922C174.233 72.868 174.315 72.8037 174.375 72.7728C174.436 72.7418 174.514 72.7387 174.585 72.7374C174.907 72.7316 175.23 72.7284 175.552 72.7284C190.056 72.728 204.56 72.7281 219.065 72.7282C219.351 72.7282 219.638 72.7253 219.924 72.7315C220.409 72.7419 220.476 72.8056 220.477 73.3002C220.481 75.4496 220.48 77.5991 220.48 79.7485C220.48 80.9307 220.481 82.1129 220.479 83.2951C220.479 83.4735 220.468 83.6521 220.456 83.8302C220.448 83.9662 220.318 84.0928 220.171 84.0978C219.814 84.1102 219.456 84.1219 219.098 84.122C213.691 84.1235 208.283 84.123 202.875 84.123C198.506 84.123 194.137 84.123 189.768 84.123C189.481 84.123 189.195 84.1202 188.908 84.1253C188.351 84.1352 188.275 84.2079 188.265 84.7252C188.263 84.8326 188.264 84.9401 188.264 85.0476C188.264 88.8091 188.263 92.5707 188.264 96.3322C188.264 96.5468 188.272 96.7615 188.281 96.976C188.29 97.1576 188.438 97.2954 188.635 97.2993C188.993 97.3064 189.351 97.3083 189.709 97.3083C198.196 97.3087 206.684 97.3086 215.172 97.3087C215.494 97.3087 215.816 97.3157 216.139 97.3091C216.673 97.2982 216.69 97.4647 216.704 97.8709C216.715 98.193 216.709 98.5157 216.709 98.8381C216.709 101.561 216.709 104.283 216.709 107.006C216.709 107.257 216.711 107.508 216.707 107.758C216.696 108.383 216.632 108.451 216.051 108.46C215.908 108.462 215.765 108.461 215.622 108.461C215.407 108.461 215.192 108.461 214.977 108.461C206.525 108.461 198.073 108.461 189.622 108.462C189.264 108.462 188.907 108.476 188.55 108.488C188.414 108.492 188.288 108.629 188.28 108.767C188.274 108.874 188.265 108.981 188.265 109.088C188.264 113.351 188.263 117.614 188.266 121.877C188.266 122.055 188.284 122.234 188.316 122.409C188.327 122.466 188.399 122.533 188.457 122.555C188.555 122.593 188.664 122.611 188.769 122.613C189.127 122.621 189.485 122.62 189.843 122.62C199.942 122.62 210.041 122.62 220.141 122.621C220.534 122.621 220.928 122.635 221.321 122.645C221.45 122.649 221.572 122.788 221.579 122.93C221.587 123.109 221.596 123.288 221.596 123.467C221.597 126.691 221.597 129.915 221.595 133.139C221.595 133.353 221.571 133.566 221.556 133.78C221.547 133.907 221.442 133.966 221.348 133.999C221.251 134.034 221.136 134.027 221.029 134.028C220.707 134.031 220.385 134.031 220.062 134.031C205.272 134.031 190.481 134.031 175.69 134.03C175.296 134.03 174.903 134.022 174.509 134.012C174.373 134.009 174.233 133.874 174.218 133.745C174.205 133.639 174.189 133.533 174.188 133.426C174.183 133.104 174.184 132.781 174.184 132.459C174.184 122.715 174.184 112.97 174.184 103.226Z" fill="#DA2217"/>
<path d="M91.5107 103.882C91.5107 113.587 91.5107 123.292 91.5107 132.996C91.5107 133.319 91.5133 133.641 91.5083 133.963C91.5008 134.444 91.429 134.516 90.947 134.524C90.5533 134.529 90.1594 134.526 89.7656 134.526C85.935 134.526 82.1045 134.527 78.2739 134.524C77.9896 134.524 77.7046 134.5 77.4216 134.471C77.3685 134.465 77.3014 134.391 77.2794 134.333C77.2423 134.236 77.2226 134.128 77.2194 134.023C77.2106 133.737 77.2132 133.451 77.2132 133.164C77.213 113.647 77.2129 94.1304 77.2141 74.6135C77.2141 74.2559 77.228 73.8983 77.2417 73.5409C77.247 73.404 77.385 73.2709 77.5174 73.2623C77.6599 73.253 77.8027 73.243 77.9454 73.243C82.2055 73.242 86.4657 73.2417 90.7258 73.2435C90.9039 73.2435 91.0866 73.2437 91.2581 73.2831C91.3424 73.3025 91.4328 73.3999 91.4715 73.4845C91.5136 73.5765 91.5061 73.6944 91.5076 73.8012C91.5119 74.1234 91.5106 74.4458 91.5106 74.7681C91.5106 84.4728 91.5107 94.1776 91.5107 103.882Z" fill="#FEFEFE"/>
<path d="M287.98 103.845C287.98 94.0638 287.979 84.2825 287.981 74.5013C287.981 74.1443 288 73.7868 288.026 73.4306C288.029 73.3775 288.111 73.3069 288.17 73.286C288.27 73.2514 288.38 73.2399 288.486 73.2377C288.809 73.2311 289.131 73.2328 289.453 73.2328C297.512 73.2326 305.571 73.2353 313.63 73.2307C315.529 73.2296 317.426 73.2506 319.316 73.4659C322.715 73.853 326.011 74.626 329.121 76.0875C330.945 76.9442 332.646 77.9968 334.174 79.3169C337.57 82.2521 339.713 85.921 340.629 90.3179C341.101 92.5809 341.177 94.8623 341.064 97.1605C340.986 98.778 340.722 100.365 340.287 101.92C339.096 106.175 336.688 109.604 333.179 112.265C330.784 114.081 328.108 115.346 325.238 116.202C323.349 116.766 321.417 117.124 319.456 117.352C317.744 117.551 316.028 117.6 314.309 117.605C310.656 117.616 307.003 117.607 303.349 117.611C303.066 117.611 302.782 117.638 302.499 117.669C302.445 117.675 302.387 117.749 302.353 117.806C302.319 117.865 302.299 117.94 302.297 118.009C302.288 118.331 302.285 118.653 302.285 118.976C302.285 123.705 302.285 128.434 302.284 133.164C302.284 133.486 302.282 133.809 302.272 134.131C302.265 134.382 302.132 134.501 301.858 134.51C301.679 134.517 301.5 134.517 301.321 134.517C297.202 134.517 293.083 134.517 288.964 134.516C288.749 134.516 288.534 134.512 288.32 134.502C288.124 134.494 287.998 134.362 287.993 134.155C287.984 133.797 287.98 133.439 287.98 133.081C287.98 123.336 287.98 113.59 287.98 103.845Z" fill="#FEFEFE"/>
<path d="M178.616 332.821C178.616 327.268 178.616 321.715 178.616 316.163C178.616 315.84 178.607 315.517 178.624 315.195C178.653 314.651 178.788 314.133 179.093 313.674C179.53 313.016 180.13 312.59 180.913 312.456C181.229 312.402 181.553 312.368 181.873 312.367C184.953 312.361 188.033 312.361 191.113 312.367C191.434 312.367 191.756 312.405 192.076 312.44C193.147 312.557 194.061 313.014 194.841 313.746C195.418 314.287 195.93 314.886 196.402 315.518C197.613 317.138 198.506 318.927 199.189 320.823C199.957 322.953 200.444 325.148 200.74 327.394C200.914 328.711 200.99 330.034 201.029 331.357C201.081 333.076 200.969 334.792 200.772 336.503C200.579 338.179 200.266 339.829 199.826 341.456C199.272 343.501 198.517 345.469 197.483 347.325C196.924 348.329 196.291 349.283 195.557 350.167C195.282 350.497 194.999 350.823 194.688 351.118C193.798 351.964 192.729 352.419 191.503 352.492C191.182 352.51 190.859 352.505 190.536 352.505C187.564 352.506 184.591 352.506 181.619 352.505C181.332 352.505 181.045 352.511 180.759 352.495C179.729 352.434 178.941 351.772 178.701 350.761C178.652 350.554 178.631 350.338 178.62 350.125C178.607 349.839 178.616 349.552 178.616 349.265C178.616 343.784 178.616 338.302 178.616 332.821Z" fill="#0393E1"/>
<path d="M177.688 266.105C177.688 260.233 177.687 254.361 177.689 248.489C177.689 248.132 177.703 247.774 177.716 247.417C177.72 247.288 177.861 247.161 178.001 247.154C178.215 247.143 178.43 247.132 178.644 247.132C182.474 247.13 186.304 247.13 190.134 247.131C190.671 247.132 191.201 247.153 191.728 247.299C192.612 247.545 193.381 247.972 194.033 248.613C194.673 249.242 195.242 249.932 195.756 250.667C196.871 252.263 197.701 254.002 198.338 255.836C198.951 257.598 199.368 259.406 199.665 261.248C200.083 263.842 200.173 266.452 200.021 269.065C199.809 272.695 199.11 276.229 197.712 279.605C196.983 281.367 196.084 283.032 194.899 284.53C194.501 285.035 194.071 285.518 193.626 285.982C192.874 286.766 191.941 287.173 190.855 287.221C190.605 287.232 190.354 287.231 190.103 287.231C187.025 287.232 183.947 287.232 180.869 287.23C180.547 287.229 180.224 287.222 179.904 287.194C178.764 287.093 177.787 286.048 177.708 284.903C177.683 284.546 177.688 284.187 177.688 283.829C177.687 277.921 177.688 272.013 177.688 266.105Z" fill="#0393E1"/>
<path d="M148.795 201.558C147.329 201.558 145.863 201.559 144.398 201.555C144.221 201.555 144.042 201.535 143.868 201.501C143.824 201.492 143.761 201.386 143.77 201.337C143.803 201.165 143.848 200.992 143.915 200.83C144.649 199.046 145.387 197.263 146.127 195.481C146.895 193.634 147.666 191.787 148.438 189.942C148.534 189.712 148.643 189.487 148.75 189.262C148.762 189.237 148.808 189.2 148.82 189.206C148.883 189.236 148.965 189.264 148.994 189.318C149.11 189.538 149.216 189.764 149.312 189.993C150.014 191.675 150.713 193.357 151.412 195.04C152.179 196.888 152.944 198.737 153.708 200.586C153.803 200.817 153.887 201.052 153.973 201.287C154.005 201.376 153.918 201.521 153.832 201.525C153.547 201.537 153.262 201.556 152.977 201.556C151.583 201.56 150.189 201.558 148.795 201.558Z" fill="#0393E1"/>
<path d="M302.285 95.3849C302.285 92.3055 302.285 89.226 302.285 86.1466C302.285 85.8244 302.288 85.5022 302.294 85.18C302.298 84.972 302.421 84.8371 302.605 84.8284C302.748 84.8217 302.891 84.8146 303.034 84.8146C306.757 84.814 310.48 84.8151 314.203 84.8141C315.965 84.8136 317.7 85.013 319.402 85.4831C320.372 85.751 321.305 86.1134 322.174 86.6188C324.679 88.076 326.161 90.2461 326.656 93.1008C326.922 94.6338 326.922 96.1624 326.651 97.6938C326.169 100.413 324.798 102.539 322.456 104.025C321.388 104.704 320.225 105.158 319.005 105.463C317.999 105.716 316.977 105.88 315.938 105.958C314.83 106.04 313.723 106.072 312.612 106.07C309.606 106.065 306.599 106.069 303.592 106.068C303.27 106.068 302.948 106.061 302.626 106.051C302.45 106.046 302.304 105.888 302.298 105.697C302.289 105.375 302.286 105.053 302.286 104.731C302.285 101.615 302.285 98.5001 302.285 95.3849Z" fill="#D82215"/>
</svg>
