<svg width="131" height="131" viewBox="0 0 131 131" fill="none" xmlns="http://www.w3.org/2000/svg">
<path d="M42.3579 36.3019L57.5368 21.1176L57.6514 95.5224C57.6514 100.044 61.317 103.71 65.8386 103.71C70.3602 103.71 74.0257 100.044 74.0257 95.5224L73.9111 21.2104L89.0028 36.3022C92.1441 39.5545 97.3271 39.6446 100.579 36.5033C103.832 33.362 103.922 28.179 100.781 24.9266C100.715 24.8583 100.648 24.7913 100.579 24.7255L83.048 7.19404C73.4562 -2.39797 57.9047 -2.39797 48.3127 7.19379L48.3125 7.19404L30.7812 24.7253C27.6399 27.9776 27.73 33.1606 30.9823 36.3019C34.1551 39.3662 39.1851 39.3662 42.3579 36.3019Z" fill="black"/>
<path d="M122.81 79.1479C118.289 79.1479 114.623 82.8135 114.623 87.3351V112.393C114.62 113.625 113.622 114.623 112.391 114.625H18.6095C17.3778 114.622 16.38 113.625 16.3772 112.393V87.3351C16.3772 82.8135 12.7117 79.1479 8.19008 79.1479C3.66847 79.1479 0.00292969 82.8135 0.00292969 87.3351V112.393C0.0149546 122.664 8.33847 130.988 18.6095 131H112.39C122.662 130.988 130.985 122.664 130.997 112.393V87.3351C130.997 82.8135 127.332 79.1479 122.81 79.1479Z" fill="black"/>
</svg>
