<svg width="207" height="207" viewBox="0 0 207 207" fill="none" xmlns="http://www.w3.org/2000/svg">
<path d="M206.103 103.051C206.103 159.965 159.965 206.103 103.051 206.103C46.1377 206.103 0 159.965 0 103.051C0 46.1377 46.1377 0 103.051 0C159.965 0 206.103 46.1377 206.103 103.051Z" fill="#00FF6F"/>
<path d="M98.9737 36.951C85.8092 39.1611 74.8068 50.2597 72.6447 63.4722C72.1883 66.403 72.1883 71.5919 72.6447 74.5227C74.8068 87.8554 85.8573 98.9059 99.19 101.068C102.121 101.524 107.31 101.524 110.24 101.068C123.573 98.9059 134.624 87.8554 136.786 74.5227C137.242 71.5919 137.242 66.403 136.786 63.4722C134.624 50.1395 123.573 39.089 110.24 36.927C107.43 36.4706 101.736 36.4946 98.9737 36.951Z" fill="white"/>
<path d="M90.6619 109.019C76.8487 111.206 65.0055 119.085 57.5824 131.048C53.2583 137.967 50.6639 146.855 50.6639 154.591C50.6639 157.546 50.9041 158.218 52.2494 159.107C52.922 159.539 54.4114 159.563 104.715 159.563C155.019 159.563 156.508 159.539 157.181 159.107C158.526 158.218 158.767 157.546 158.767 154.543C158.767 142.747 153.265 130.304 144.185 121.607C137.53 115.217 130.131 111.35 120.666 109.308C118.432 108.827 117.519 108.803 105.556 108.731C95.4424 108.683 92.3675 108.731 90.6619 109.019Z" fill="white"/>
</svg>
