<svg width="307" height="307" viewBox="0 0 307 307" fill="none" xmlns="http://www.w3.org/2000/svg">
<g filter="url(#filter0_d_81_1145)">
<circle cx="153.051" cy="153.051" r="103.051" fill="#00FF6F"/>
<g clip-path="url(#clip0_81_1145)">
<rect x="92" y="89" width="122.997" height="122.997" rx="50" fill="#00FF6F"/>
<path d="M147.757 89.384C134.592 91.5941 123.59 102.693 121.428 115.905C120.972 118.836 120.972 124.025 121.428 126.956C123.59 140.288 134.641 151.339 147.973 153.501C150.904 153.957 156.093 153.957 159.024 153.501C172.356 151.339 183.407 140.288 185.569 126.956C186.025 124.025 186.025 118.836 185.569 115.905C183.407 102.573 172.356 91.5221 159.024 89.36C156.213 88.9036 150.52 88.9276 147.757 89.384Z" fill="white"/>
<path d="M139.445 161.453C125.632 163.639 113.789 171.518 106.366 183.482C102.042 190.4 99.4471 199.289 99.4471 207.024C99.4471 209.979 99.6873 210.651 101.033 211.54C101.705 211.973 103.195 211.997 153.498 211.997C203.802 211.997 205.292 211.973 205.964 211.54C207.31 210.651 207.55 209.979 207.55 206.976C207.55 195.181 202.049 182.737 192.968 174.041C186.314 167.65 178.915 163.783 169.45 161.741C167.215 161.26 166.303 161.236 154.339 161.164C144.226 161.116 141.151 161.164 139.445 161.453Z" fill="white"/>
</g>
</g>
<defs>
<filter id="filter0_d_81_1145" x="0" y="0" width="306.103" height="306.103" filterUnits="userSpaceOnUse" color-interpolation-filters="sRGB">
<feFlood flood-opacity="0" result="BackgroundImageFix"/>
<feColorMatrix in="SourceAlpha" type="matrix" values="0 0 0 0 0 0 0 0 0 0 0 0 0 0 0 0 0 0 127 0" result="hardAlpha"/>
<feOffset/>
<feGaussianBlur stdDeviation="25"/>
<feComposite in2="hardAlpha" operator="out"/>
<feColorMatrix type="matrix" values="0 0 0 0 0 0 0 0 0 1 0 0 0 0 0.435294 0 0 0 0.5 0"/>
<feBlend mode="normal" in2="BackgroundImageFix" result="effect1_dropShadow_81_1145"/>
<feBlend mode="normal" in="SourceGraphic" in2="effect1_dropShadow_81_1145" result="shape"/>
</filter>
<clipPath id="clip0_81_1145">
<rect x="92" y="89" width="122.997" height="122.997" rx="50" fill="white"/>
</clipPath>
</defs>
</svg>
